<?xml version="1.0" encoding="UTF-8" standalone="no"?>
<!DOCTYPE svg PUBLIC "-//W3C//DTD SVG 1.1//EN" "http://www.w3.org/Graphics/SVG/1.1/DTD/svg11.dtd">
<svg width="100%" height="100%" viewBox="0 0 1000 1000" version="1.1" xmlns="http://www.w3.org/2000/svg" xmlns:xlink="http://www.w3.org/1999/xlink" xml:space="preserve" xmlns:serif="http://www.serif.com/" style="fill-rule:evenodd;clip-rule:evenodd;stroke-linejoin:round;stroke-miterlimit:2;">
    <g transform="matrix(1.19084,0,0,1.19084,-32.6031,-204.597)">
        <path d="M291.843,732.529L291.843,821.964C291.843,846.645 271.806,866.682 247.126,866.682L157.69,866.682C133.01,866.682 112.973,846.645 112.973,821.964L112.973,732.529C112.973,707.848 133.01,687.811 157.69,687.811L247.126,687.811C271.806,687.811 291.843,707.848 291.843,732.529Z" style="fill-opacity:0.4;"/>
    </g>
    <g transform="matrix(1.19084,0,0,2.39245,255.365,-1246.01)">
        <path d="M291.843,710.069L291.843,844.424C291.843,856.708 271.806,866.682 247.126,866.682L157.69,866.682C133.01,866.682 112.973,856.708 112.973,844.424L112.973,710.069C112.973,697.785 133.01,687.811 157.69,687.811L247.126,687.811C271.806,687.811 291.843,697.785 291.843,710.069Z" style="fill-opacity:0.4;"/>
    </g>
    <g transform="matrix(1.19084,0,0,3.57941,543.332,-2274.72)">
        <path d="M291.843,702.688L291.843,851.805C291.843,860.016 271.806,866.682 247.126,866.682L157.69,866.682C133.01,866.682 112.973,860.016 112.973,851.805L112.973,702.688C112.973,694.477 133.01,687.811 157.69,687.811L247.126,687.811C271.806,687.811 291.843,694.477 291.843,702.688Z" style="fill-opacity:0.8;"/>
    </g>
</svg>
