<?xml version="1.0" encoding="UTF-8" standalone="no"?><!DOCTYPE svg PUBLIC "-//W3C//DTD SVG 1.1//EN" "http://www.w3.org/Graphics/SVG/1.1/DTD/svg11.dtd"><svg width="100%" height="100%" viewBox="0 0 1110 1495" version="1.1" xmlns="http://www.w3.org/2000/svg" xmlns:xlink="http://www.w3.org/1999/xlink" xml:space="preserve" xmlns:serif="http://www.serif.com/" style="fill-rule:evenodd;clip-rule:evenodd;stroke-linecap:round;stroke-linejoin:round;stroke-miterlimit:1.5;"><rect id="Artboard1" x="0" y="0" width="1109.61" height="1494.39" style="fill:none;"/><path d="M191.429,477.091c-0,0 -13.386,127.022 27.803,216.336c39.663,86.006 96.598,120.986 96.598,120.986c-0,0 -64.37,-215.253 -2.233,-432.134c69.983,-244.263 299.821,-358.247 299.821,-358.247c0,0 -65.57,101.81 -2.075,224.719c49.274,95.382 132.013,156.101 190.037,194.841c131.272,87.644 216.064,193.891 249.24,338.19c34.145,148.511 16.061,254.352 -21.758,350.23c-48.836,123.809 -115.537,184.024 -238.933,264.069c-46.533,30.186 -203.825,85.416 -341.481,48.656c-208.049,-55.557 -286.911,-148.533 -353.815,-262.569c-69.736,-118.862 -74.638,-273.649 -54.617,-404.239c30.061,-196.073 151.413,-300.838 151.413,-300.838Z" style="stroke:#000;stroke-width:1px;"/><path d="M281.197,1162.9c0,0 75.3,11.984 186.832,-72.816c94.136,-71.572 143.727,-218.985 143.727,-218.985c0,0 15.261,75.618 -2.372,145.842c-19.396,77.249 -45.123,113.323 -45.123,113.323c-0,0 76.032,-46.156 121.738,-114.566c34.011,-50.907 75.614,-127.054 64.023,-256.678c-12.617,-141.093 -103.598,-214.903 -103.598,-214.903c0,-0 135.386,34.575 220.029,150.479c30.278,41.46 69.409,113.115 74.72,214.943c5.497,105.382 -41.16,181.979 -60.136,211.75c-27.13,42.563 -51.085,78.4 -144.95,134.37c-87.176,51.981 -213.078,40.014 -265.274,28.289c-144.163,-32.386 -189.616,-121.048 -189.616,-121.048" style="fill:#f00;stroke:#000;stroke-width:1px;"/></svg>